<?xml version="1.0" standalone="no"?>
<!DOCTYPE svg PUBLIC "-//W3C//DTD SVG 20010904//EN"
 "http://www.w3.org/TR/2001/REC-SVG-20010904/DTD/svg10.dtd">
<svg version="1.0" xmlns="http://www.w3.org/2000/svg"
 width="1500.000000pt" height="1500.000000pt" viewBox="0 0 1500.000000 1500.000000"
 preserveAspectRatio="xMidYMid meet">

<g transform="translate(0.000000,1500.000000) scale(0.100000,-0.100000)"
fill="#000000" stroke="none">
<path d="M2906 9636 c-58 -22 -88 -48 -114 -98 -58 -112 -30 -293 78 -509 80
-157 674 -954 997 -1334 306 -361 787 -843 1148 -1150 569 -484 1279 -914
1794 -1085 408 -136 731 -162 1121 -89 591 111 1288 479 1980 1044 382 313
850 772 1232 1208 194 222 436 522 410 508 -11 -6 18 28 65 77 86 88 154 172
255 317 247 355 371 655 356 865 -6 84 -24 113 -88 149 -64 36 -152 39 -270 8
-123 -32 -205 -72 -315 -154 -217 -161 -857 -642 -1036 -779 -107 -82 -236
-177 -285 -212 -254 -179 -396 -281 -567 -403 -542 -388 -814 -551 -1176 -706
-287 -123 -694 -232 -818 -218 -148 17 -507 93 -673 144 -338 102 -831 359
-1490 775 -357 226 -563 373 -1423 1019 -373 279 -706 523 -740 542 -144 79
-347 116 -441 81z m6441 -2522 c-3 -3 -12 -4 -19 -1 -8 3 -5 6 6 6 11 1 17 -2
13 -5z m-164 -31 c-7 -2 -19 -2 -25 0 -7 3 -2 5 12 5 14 0 19 -2 13 -5z m-146
-19 c-3 -3 -12 -4 -19 -1 -8 3 -5 6 6 6 11 1 17 -2 13 -5z m-64 -11 c-7 -2
-19 -2 -25 0 -7 3 -2 5 12 5 14 0 19 -2 13 -5z m-220 -20 c-7 -2 -19 -2 -25 0
-7 3 -2 5 12 5 14 0 19 -2 13 -5z m-655 -10 c-16 -2 -40 -2 -55 0 -16 2 -3 4
27 4 30 0 43 -2 28 -4z m550 0 c-15 -2 -42 -2 -60 0 -18 2 -6 4 27 4 33 0 48
-2 33 -4z"/>
</g>
</svg>
