<?xml version="1.0" standalone="no"?>
<!DOCTYPE svg PUBLIC "-//W3C//DTD SVG 20010904//EN"
 "http://www.w3.org/TR/2001/REC-SVG-20010904/DTD/svg10.dtd">
<svg version="1.0" xmlns="http://www.w3.org/2000/svg"
 width="1367.000000pt" height="821.000000pt" viewBox="0 0 1367.000000 821.000000"
 preserveAspectRatio="xMidYMid meet">

<g transform="translate(0.000000,821.000000) scale(0.100000,-0.100000)"
fill="#000000" stroke="none">
<path d="M9238 7197 c-180 -76 -367 -281 -699 -767 -436 -639 -762 -1029
-1066 -1276 -135 -110 -240 -170 -408 -234 -15 -5 0 -12 60 -26 105 -24 332
-25 461 -1 292 53 672 240 958 471 380 306 718 699 895 1038 120 230 165 392
160 576 -4 108 -6 122 -31 159 -37 56 -85 77 -188 80 -71 3 -94 0 -142 -20z"/>
<path d="M4356 7050 c-112 -45 -162 -144 -123 -245 25 -62 260 -518 383 -740
737 -1339 1454 -2203 2010 -2426 228 -91 525 -93 776 -3 494 177 1018 720
1460 1514 136 243 304 601 324 687 5 25 2 23 -37 -22 -24 -27 -100 -108 -169
-179 -458 -472 -934 -769 -1387 -867 -146 -32 -366 -32 -486 0 -362 94 -790
389 -1311 901 -382 376 -696 735 -1116 1276 -64 82 -125 118 -209 121 -48 2
-80 -2 -115 -17z"/>
<path d="M3498 2574 c-59 -32 -58 -16 -58 -689 0 -676 -2 -658 60 -690 48 -25
86 -19 128 19 l37 34 3 622 c2 562 1 624 -14 656 -28 59 -97 80 -156 48z"/>
<path d="M11458 2574 c-52 -28 -58 -55 -58 -264 0 -104 -2 -190 -5 -190 -3 0
-24 13 -46 30 -126 91 -316 103 -461 29 -101 -52 -198 -183 -234 -320 -22 -84
-22 -235 0 -318 61 -235 261 -388 481 -368 79 8 135 28 205 76 l57 39 17 -39
c28 -64 94 -86 157 -53 59 30 59 25 59 689 0 664 0 659 -59 689 -37 20 -78 20
-113 0z m-238 -569 c67 -24 116 -69 152 -143 30 -61 33 -74 33 -162 0 -88 -3
-101 -33 -163 -105 -213 -389 -208 -488 8 -45 97 -42 230 7 325 61 120 204
179 329 135z"/>
<path d="M11900 2537 c-37 -18 -51 -54 -47 -115 5 -69 28 -93 95 -100 65 -6
120 13 133 45 10 28 12 97 3 131 -4 12 -19 29 -35 37 -34 18 -115 19 -149 2z"/>
<path d="M980 2513 c-28 -10 -59 -46 -70 -79 -13 -40 -25 -9 264 -689 232
-549 241 -565 310 -565 18 0 48 10 66 22 29 20 48 57 145 283 279 652 385 905
385 920 0 34 -30 84 -59 99 -62 33 -135 7 -162 -55 -7 -19 -88 -227 -179 -464
-91 -236 -169 -429 -174 -428 -5 1 -93 201 -196 445 -102 244 -192 453 -199
465 -21 40 -85 63 -131 46z"/>
<path d="M8089 2505 c-133 -26 -271 -105 -359 -203 -60 -66 -133 -209 -151
-297 -20 -91 -15 -265 10 -358 31 -116 74 -191 166 -283 121 -123 250 -178
445 -191 155 -10 351 41 401 105 39 50 16 134 -48 169 -35 19 -51 16 -153 -22
-69 -26 -184 -31 -273 -11 -83 19 -173 70 -220 126 -107 127 -129 363 -48 529
92 190 340 271 568 186 90 -34 132 -29 165 18 29 41 32 115 5 145 -25 28 -125
70 -204 87 -83 18 -215 18 -304 0z"/>
<path d="M12478 2404 c-42 -22 -58 -63 -58 -147 l0 -75 -71 -4 c-63 -3 -74 -7
-95 -31 -26 -30 -33 -92 -14 -128 17 -30 64 -49 124 -49 l55 0 3 -312 c3 -311
3 -313 28 -363 21 -41 35 -55 80 -78 109 -54 247 -46 316 18 38 37 44 76 19
125 -18 35 -49 45 -89 31 -42 -17 -84 -13 -106 9 -19 19 -20 33 -20 295 l0
275 86 0 c84 0 87 1 120 34 26 26 34 42 34 71 0 29 -8 45 -34 71 -33 33 -36
34 -120 34 l-86 0 0 63 c0 34 -5 79 -11 100 -18 66 -97 96 -161 61z"/>
<path d="M4253 2216 c-168 -41 -311 -177 -364 -345 -28 -88 -30 -241 -5 -326
40 -135 127 -247 242 -311 150 -84 369 -82 516 4 159 91 252 262 252 462 0
162 -52 288 -160 390 -129 120 -310 167 -481 126z m220 -212 c63 -21 130 -83
164 -152 25 -50 28 -68 28 -152 0 -84 -3 -102 -28 -152 -109 -222 -406 -222
-514 0 -24 50 -27 69 -27 152 0 83 3 102 27 152 66 136 212 199 350 152z"/>
<path d="M9891 2215 c-123 -35 -238 -128 -298 -240 -87 -166 -90 -383 -6 -549
35 -68 135 -165 206 -199 191 -92 458 -64 589 61 45 43 55 79 34 121 -33 63
-90 67 -195 14 -71 -36 -79 -38 -170 -38 -79 1 -103 5 -138 23 -83 43 -132
103 -158 189 l-6 22 341 3 342 3 29 33 c25 28 29 40 29 90 0 186 -138 382
-320 452 -72 29 -205 36 -279 15z m234 -223 c65 -33 125 -111 125 -162 0 -20
-5 -20 -251 -20 l-250 0 6 23 c38 129 124 190 260 183 46 -2 84 -10 110 -24z"/>
<path d="M2520 2202 c-80 -27 -117 -48 -172 -100 -106 -99 -159 -233 -161
-402 0 -116 15 -185 63 -280 96 -190 304 -287 504 -235 62 16 132 53 161 85
25 27 29 26 49 -20 36 -83 143 -94 193 -21 16 24 18 65 21 451 2 292 0 437 -8
463 -29 97 -172 101 -210 6 -7 -19 -15 -35 -16 -37 -1 -2 -21 10 -44 27 -100
72 -268 100 -380 63z m255 -209 c59 -20 121 -79 155 -148 21 -43 24 -65 25
-150 0 -86 -3 -107 -24 -150 -67 -134 -196 -192 -337 -150 -69 21 -118 64
-156 143 -30 60 -33 75 -33 157 0 82 3 97 33 157 66 134 197 189 337 141z"/>
<path d="M5513 2205 c-62 -19 -127 -60 -160 -100 l-29 -35 -12 45 c-26 99
-160 115 -207 25 -22 -42 -23 -843 -1 -895 25 -58 96 -81 157 -49 55 28 59 55
59 353 0 248 2 275 20 325 25 65 80 119 140 137 34 10 49 10 94 -4 82 -26 121
-20 158 27 22 26 24 104 3 132 -34 50 -133 67 -222 39z"/>
<path d="M6170 2202 c-78 -26 -116 -48 -168 -95 -61 -57 -106 -130 -138 -224
-33 -98 -38 -253 -10 -347 70 -238 254 -380 471 -363 87 7 142 26 215 76 l57
39 17 -39 c39 -89 159 -92 200 -5 14 30 16 86 16 455 0 463 -1 476 -59 505
-64 34 -140 6 -161 -58 -6 -20 -13 -36 -16 -36 -2 0 -23 13 -45 30 -99 71
-268 99 -379 62z m255 -209 c59 -20 121 -79 155 -148 21 -43 24 -65 25 -150 0
-86 -3 -107 -24 -150 -67 -134 -196 -192 -337 -150 -69 21 -118 64 -156 143
-30 60 -33 75 -33 157 0 76 4 98 26 145 67 141 202 202 344 153z"/>
<path d="M9229 2206 c-62 -16 -132 -59 -166 -101 l-29 -35 -12 45 c-26 99
-160 115 -207 25 -22 -42 -23 -843 -1 -895 25 -58 96 -81 157 -49 55 28 59 55
59 353 0 248 2 275 20 325 25 65 80 119 140 137 34 10 49 10 94 -4 29 -9 63
-17 75 -17 30 0 78 26 91 49 15 30 12 104 -6 130 -34 48 -120 63 -215 37z"/>
<path d="M11925 2191 c-11 -5 -29 -19 -40 -31 -19 -21 -20 -36 -20 -471 l0
-449 26 -26 c18 -18 41 -28 73 -31 42 -5 48 -3 81 30 l35 35 0 436 c0 291 -4
443 -11 459 -21 46 -91 69 -144 48z"/>
</g>
</svg>
